<svg version="1.1" viewBox="0.0 0.0 960.0 540.0" fill="none" stroke="none" stroke-linecap="square" stroke-miterlimit="10" xmlns:xlink="http://www.w3.org/1999/xlink" xmlns="http://www.w3.org/2000/svg"><clipPath id="g3179d4641d7_0_66.0"><path d="m0 0l960.0 0l0 540.0l-960.0 0l0 -540.0z" clip-rule="nonzero"/></clipPath><g clip-path="url(#g3179d4641d7_0_66.0)"><path fill="#ffffff" d="m0 0l960.0 0l0 540.0l-960.0 0z" fill-rule="evenodd"/><path fill="#cccccc" d="m22.884514 337.0608l0 0c0 -11.675049 9.464489 -21.139526 21.13953 -21.139526l84.55559 0l0 0c5.606552 0 10.983475 2.2272034 14.9479065 6.19162c3.9644165 3.9644165 6.19162 9.341339 6.19162 14.9479065l0 104.24063c0 11.675018 -9.464493 21.139526 -21.139526 21.139526l-84.55559 0c-11.675041 0 -21.13953 -9.464508 -21.13953 -21.139526z" fill-rule="evenodd"/><path fill="#000000" d="m60.529064 394.6636q1.234375 0.859375 2.265625 1.25l-0.515625 1.21875q-1.4375 -0.515625 -2.875 -1.625q-1.484375 0.828125 -3.28125 0.828125q-1.8125 0 -3.296875 -0.875q-1.46875 -0.875 -2.265625 -2.453125q-0.796875 -1.59375 -0.796875 -3.578125q0 -1.984375 0.796875 -3.59375q0.8125 -1.625 2.28125 -2.46875q1.484375 -0.859375 3.328125 -0.859375q1.84375 0 3.328125 0.890625q1.484375 0.875 2.265625 2.453125q0.78125 1.578125 0.78125 3.5625q0 1.65625 -0.5 2.96875q-0.5 1.3125 -1.515625 2.28125zm-3.890625 -2.25q1.53125 0.421875 2.515625 1.28125q1.5625 -1.421875 1.5625 -4.28125q0 -1.625 -0.546875 -2.828125q-0.546875 -1.21875 -1.609375 -1.875q-1.0625 -0.671875 -2.390625 -0.671875q-1.96875 0 -3.28125 1.359375q-1.296875 1.34375 -1.296875 4.03125q0 2.59375 1.28125 4.0q1.296875 1.390625 3.296875 1.390625q0.953125 0 1.78125 -0.359375q-0.828125 -0.53125 -1.75 -0.765625l0.4375 -1.28125zm14.40205 3.6875l0 -1.421875q-1.125 1.640625 -3.0625 1.640625q-0.859375 0 -1.609375 -0.328125q-0.734375 -0.328125 -1.09375 -0.828125q-0.359375 -0.5 -0.5 -1.21875q-0.109375 -0.46875 -0.109375 -1.53125l0 -5.984375l1.640625 0l0 5.359375q0 1.28125 0.109375 1.734375q0.15625 0.640625 0.65625 1.015625q0.5 0.375 1.234375 0.375q0.734375 0 1.375 -0.375q0.65625 -0.390625 0.921875 -1.03125q0.265625 -0.65625 0.265625 -1.890625l0 -5.1875l1.640625 0l0 9.671875l-1.46875 0zm10.672592 -3.109375l1.6875 0.203125q-0.40625 1.484375 -1.484375 2.3125q-1.078125 0.8125 -2.765625 0.8125q-2.125 0 -3.375 -1.296875q-1.234375 -1.3125 -1.234375 -3.671875q0 -2.453125 1.25 -3.796875q1.265625 -1.34375 3.265625 -1.34375q1.9375 0 3.15625 1.328125q1.234375 1.3125 1.234375 3.703125q0 0.15625 0 0.4375l-7.21875 0q0.09375 1.59375 0.90625 2.453125q0.8125 0.84375 2.015625 0.84375q0.90625 0 1.546875 -0.46875q0.640625 -0.484375 1.015625 -1.515625zm-5.390625 -2.65625l5.40625 0q-0.109375 -1.21875 -0.625 -1.828125q-0.78125 -0.953125 -2.03125 -0.953125q-1.125 0 -1.90625 0.765625q-0.765625 0.75 -0.84375 2.015625zm8.485092 2.875l1.625 -0.25q0.125 0.96875 0.75 1.5q0.625 0.515625 1.75 0.515625q1.125 0 1.671875 -0.453125q0.546875 -0.46875 0.546875 -1.09375q0 -0.546875 -0.484375 -0.875q-0.328125 -0.21875 -1.671875 -0.546875q-1.8125 -0.46875 -2.515625 -0.796875q-0.6875 -0.328125 -1.046875 -0.90625q-0.359375 -0.59375 -0.359375 -1.3125q0 -0.640625 0.296875 -1.1875q0.296875 -0.5625 0.8125 -0.921875q0.375 -0.28125 1.03125 -0.46875q0.671875 -0.203125 1.421875 -0.203125q1.140625 0 2.0 0.328125q0.859375 0.328125 1.265625 0.890625q0.421875 0.5625 0.578125 1.5l-1.609375 0.21875q-0.109375 -0.75 -0.640625 -1.171875q-0.515625 -0.421875 -1.46875 -0.421875q-1.140625 0 -1.625 0.375q-0.46875 0.375 -0.46875 0.875q0 0.3125 0.1875 0.578125q0.203125 0.265625 0.640625 0.4375q0.234375 0.09375 1.4375 0.421875q1.75 0.453125 2.4375 0.75q0.6875 0.296875 1.078125 0.859375q0.390625 0.5625 0.390625 1.40625q0 0.828125 -0.484375 1.546875q-0.46875 0.71875 -1.375 1.125q-0.90625 0.390625 -2.046875 0.390625q-1.875 0 -2.875 -0.78125q-0.984375 -0.78125 -1.25 -2.328125zm13.5625 1.421875l0.234375 1.453125q-0.6875 0.140625 -1.234375 0.140625q-0.890625 0 -1.390625 -0.28125q-0.484375 -0.28125 -0.6875 -0.734375q-0.203125 -0.46875 -0.203125 -1.9375l0 -5.578125l-1.203125 0l0 -1.265625l1.203125 0l0 -2.390625l1.625 -0.984375l0 3.375l1.65625 0l0 1.265625l-1.65625 0l0 5.671875q0 0.6875 0.078125 0.890625q0.09375 0.203125 0.28125 0.328125q0.203125 0.109375 0.578125 0.109375q0.265625 0 0.71875 -0.0625zm1.6051788 -10.0l0 -1.890625l1.640625 0l0 1.890625l-1.640625 0zm0 11.46875l0 -9.671875l1.640625 0l0 9.671875l-1.640625 0zm3.5354462 -4.84375q0 -2.6875 1.484375 -3.96875q1.25 -1.078125 3.046875 -1.078125q2.0 0 3.265625 1.3125q1.265625 1.296875 1.265625 3.609375q0 1.859375 -0.5625 2.9375q-0.5625 1.0625 -1.640625 1.65625q-1.0625 0.59375 -2.328125 0.59375q-2.03125 0 -3.28125 -1.296875q-1.25 -1.3125 -1.25 -3.765625zm1.6875 0q0 1.859375 0.796875 2.796875q0.8125 0.921875 2.046875 0.921875q1.21875 0 2.03125 -0.921875q0.8125 -0.9375 0.8125 -2.84375q0 -1.796875 -0.8125 -2.71875q-0.8125 -0.921875 -2.03125 -0.921875q-1.234375 0 -2.046875 0.921875q-0.796875 0.90625 -0.796875 2.765625zm9.297592 4.84375l0 -9.671875l1.46875 0l0 1.375q1.0625 -1.59375 3.078125 -1.59375q0.875 0 1.609375 0.3125q0.734375 0.3125 1.09375 0.828125q0.375 0.5 0.515625 1.203125q0.09375 0.453125 0.09375 1.59375l0 5.953125l-1.640625 0l0 -5.890625q0 -1.0 -0.203125 -1.484375q-0.1875 -0.5 -0.671875 -0.796875q-0.484375 -0.296875 -1.140625 -0.296875q-1.046875 0 -1.8125 0.671875q-0.75 0.65625 -0.75 2.515625l0 5.28125l-1.640625 0z" fill-rule="nonzero"/><path fill="#eeeeee" d="m172.76378 384.53543l33.354324 0l0 -4.6456604l9.291351 9.291321l-9.291351 9.291351l0 -4.6456604l-33.354324 0z" fill-rule="evenodd"/><path stroke="#595959" stroke-width="1.0" stroke-linejoin="round" stroke-linecap="butt" d="m172.76378 384.53543l33.354324 0l0 -4.6456604l9.291351 9.291321l-9.291351 9.291351l0 -4.6456604l-33.354324 0z" fill-rule="evenodd"/><path fill="#ea9999" d="m231.32283 340.3417l0 0c0 -13.48703 10.933411 -24.42044 24.42044 -24.42044l120.04103 0c6.4766846 0 12.68811 2.5728455 17.267853 7.152588c4.579712 4.579712 7.1525574 10.791138 7.1525574 17.267853l0 97.6788c0 13.48703 -10.93338 24.42044 -24.42041 24.42044l-120.04103 0c-13.48703 0 -24.42044 -10.933411 -24.42044 -24.42044z" fill-rule="evenodd"/><path fill="#000000" d="m298.97705 385.1011l0 -13.359375l1.78125 0l0 11.78125l6.5625 0l0 1.578125l-8.34375 0zm10.375702 0l0 -13.359375l1.78125 0l0 11.78125l6.5625 0l0 1.578125l-8.34375 0zm10.406982 0l0 -13.359375l2.65625 0l3.15625 9.453125q0.4375 1.328125 0.640625 1.984375q0.234375 -0.734375 0.703125 -2.140625l3.203125 -9.296875l2.375 0l0 13.359375l-1.703125 0l0 -11.171875l-3.875 11.171875l-1.59375 0l-3.859375 -11.375l0 11.375l-1.703125 0z" fill-rule="nonzero"/><path fill="#000000" d="m268.48254 404.56985q0.53125 0.890625 2.078125 1.78125l0 -5.046875l-4.671875 0l0 -1.40625l10.765625 0l0 1.40625l-4.609375 0l0 1.640625l3.5 0l0 1.40625l-3.5 0l0 2.53125q0.671875 0.140625 1.71875 0.140625l3.03125 0l-0.21875 1.421875l-2.96875 0q-3.640625 0 -5.640625 -2.453125q-1.328125 2.078125 -2.59375 2.75l-0.96875 -1.1875q2.75 -2.09375 3.125 -5.421875l1.546875 0.359375q0.53125 0.296875 -0.140625 0.453125l-0.453125 1.625zm-4.890625 -4.296875l1.484375 -0.515625l0.296875 1.25l-1.78125 0.75l0 5.640625q0 1.1875 -1.1875 1.1875l-1.484375 0l-0.21875 -1.40625l1.109375 0q0.296875 0 0.296875 -0.296875l0 -4.609375l-1.703125 0.671875q-0.15625 0.515625 -0.296875 0.21875l-0.453125 -1.703125l2.453125 -0.75l0 -4.375l-2.078125 0l0 -1.40625l2.078125 0l0 -3.1875l1.40625 0q0.59375 0.0625 0.078125 0.4375l0 2.75l2.15625 0l0 1.40625l-2.15625 0l0 3.9375zm3.40625 -7.875l8.25 0l0 6.234375l-8.25 0l0 -6.234375zm1.265625 1.1875l0 1.34375l5.71875 0l0 -1.34375l-5.71875 0zm0 2.53125l0 1.328125l5.71875 0l0 -1.328125l-5.71875 0zm12.390625 -2.0l-1.484375 0l0 -1.421875l9.578125 0l0 1.421875l-2.21875 0l0 14.390625l-1.484375 0l0 -3.78125q-3.125 1.109375 -5.28125 1.625q-0.359375 0.53125 -0.4375 0.234375l-0.453125 -1.859375q0.890625 -0.15625 1.78125 -0.296875l0 -10.3125zm6.390625 12.90625q2.296875 -1.5625 3.5625 -3.265625q-1.859375 -2.75 -2.375 -7.34375l-0.890625 0l0 -1.40625l6.375 0l0.296875 -0.375l1.265625 1.1875l-0.375 0.21875q-0.515625 4.53125 -2.375 7.796875q1.1875 1.5625 3.125 2.75l-0.890625 1.5625q-1.9375 -1.5 -3.1875 -3.046875q-1.484375 1.703125 -3.5 3.34375l-1.03125 -1.421875zm4.453125 -4.53125q1.1875 -1.78125 1.78125 -6.078125l-3.640625 0q0.375 3.484375 1.859375 6.078125zm-9.359375 -8.375l0 2.515625l2.90625 0l0 -2.515625l-2.90625 0zm0 3.703125l0 2.453125l2.90625 0l0 -2.453125l-2.90625 0zm0 3.640625l0 2.671875q1.421875 -0.296875 2.90625 -0.8125l0 -1.859375l-2.90625 0zm26.28125 -5.5l4.296875 0l0 -1.03125l-4.296875 0l0 1.03125zm-4.375 -1.03125l-4.3125 0l0 1.03125l4.3125 0l0 -1.03125zm0 -0.890625l0 -1.046875l-4.3125 0l0 1.046875l4.3125 0zm4.375 0l4.296875 0l0 -1.046875l-4.296875 0l0 1.046875zm-2.890625 -1.9375l0 4.75l-5.796875 0l0 11.953125l-1.484375 0l0 -16.703125l7.28125 0zm6.890625 15.15625q0.296875 0 0.296875 -0.3125l0 -10.09375l-2.890625 0l-2.890625 0l0 -4.75l7.265625 0l0 15.515625q0 1.046875 -0.953125 1.046875l-1.421875 0l-0.296875 -1.40625l0.890625 0zm-2.375 -1.71875l-1.625 0l0 2.609375l-1.265625 0l0 -5.203125l1.1875 0q0.59375 0.078125 0.078125 0.4375l0 0.96875l1.625 0l0 -1.1875l1.1875 0q0.59375 0.078125 0.078125 0.453125l0 2.59375l-1.265625 0l0 -0.671875zm-1.625 -4.15625l2.21875 -0.078125l-0.515625 -0.953125l1.046875 -0.453125q0.8125 1.1875 1.25 2.453125l-1.03125 0.4375l-0.296875 -0.59375l-4.453125 0.296875l0.21875 0.453125l-1.03125 0.375l-0.53125 -1.046875l-4.453125 0.296875q-0.296875 0.59375 -0.515625 0l-0.296875 -1.1875l1.703125 0l0.671875 -0.734375l-2.0 -1.421875l0.671875 -0.953125l0.65625 0.4375l1.1875 -1.703125l0.96875 0.515625q0.515625 0.21875 -0.140625 0.453125l-1.125 1.328125l0.59375 0.453125l1.421875 -1.640625l0.890625 0.453125q0.65625 0.359375 -0.078125 0.4375l-2.234375 2.375l1.71875 -0.078125l-0.453125 -0.890625l1.046875 -0.359375l0.65625 1.328125l0.75 0l0.8125 -0.8125l-1.703125 -1.265625l0.734375 -0.890625l0.296875 0.21875l1.1875 -1.625l0.96875 0.515625q0.515625 0.375 -0.140625 0.453125l-1.125 1.25l0.59375 0.453125l1.640625 -1.9375l0.96875 0.59375q0.515625 0.453125 -0.15625 0.375l-2.59375 2.671875zm-6.09375 2.96875l1.71875 0l0 -1.40625l1.1875 0q0.59375 0.078125 0.0625 0.4375l0 2.015625q0 2.15625 -3.109375 3.1875l-0.59375 -1.03125q2.375 -0.828125 2.453125 -2.015625l-1.71875 0l0 0.671875l-1.25 0l0 -3.046875l1.1875 0q0.59375 0.078125 0.0625 0.453125l0 0.734375zm24.421875 -6.078125q-0.140625 4.0 -0.890625 6.96875q1.265625 1.78125 5.125 1.78125l2.96875 0l-0.296875 1.421875l-3.046875 0q-3.40625 0 -5.34375 -1.9375q-0.890625 1.40625 -2.515625 2.296875l-0.75 -1.109375q1.703125 -0.8125 2.53125 -2.234375q-0.828125 -1.484375 -1.34375 -4.15625l1.046875 -0.4375q0.4375 1.78125 0.8125 2.890625q0.375 -2.453125 0.4375 -4.296875l-1.25 0l-0.375 0.734375l-1.046875 -0.890625q1.421875 -2.75 2.078125 -5.265625l-1.84375 0l0 -1.1875l2.375 0l0.296875 -0.296875l0.953125 0.8125l-0.21875 0.21875q-1.109375 3.265625 -1.703125 4.6875l2.0 0zm-8.3125 3.265625q0.453125 1.84375 0.515625 3.5625l-1.328125 0.359375q-0.078125 -1.78125 -0.453125 -3.625l1.265625 -0.296875zm-0.890625 6.75q-0.078125 0.515625 -0.375 0.21875l-0.4375 -1.625l2.75 -0.59375l0 -5.796875l-2.3125 0l0 -1.1875l2.3125 0l0 -1.859375l-1.125 0l-0.8125 1.046875l-0.96875 -1.265625q2.15625 -2.515625 3.046875 -5.640625l1.40625 0.296875q0.296875 0.296875 -0.21875 0.375l-0.078125 0.21875q1.421875 1.109375 2.96875 2.828125l-0.890625 1.25q-1.625 -2.078125 -2.4375 -2.890625q-0.53125 1.40625 -1.34375 2.59375l3.125 0l0 1.1875l-1.421875 0l0 1.859375l1.9375 0l0 1.1875l-1.9375 0l0 5.421875l2.3125 -0.515625l0.0625 1.1875l-5.5625 1.703125zm14.03125 -13.65625l-1.1875 0l0 1.1875l1.1875 0l0 -1.1875zm0 2.375l-1.1875 0l0 1.1875l1.1875 0l0 -1.1875zm1.265625 -3.5625l0 2.375l0.8125 0l0 1.1875l-0.8125 0l0 2.375l-2.453125 0l0 1.265625l2.375 0l0 1.1875l-2.375 0l0 1.25l3.046875 0l0 1.1875l-3.046875 0l0 2.015625l-1.265625 0l0 -2.015625l-2.296875 0l0 -1.1875l2.296875 0l0 -1.25l-1.859375 0l0 -1.1875l1.859375 0l0 -1.265625l-1.921875 0l0 -1.1875l1.921875 0l0 -1.1875l-2.59375 0l0 -1.1875l2.59375 0l0 -1.1875l-1.921875 0l0 -1.1875l1.921875 0l0 -1.484375l1.1875 0q0.59375 0.078125 0.078125 0.4375l0 1.046875l2.453125 0zm-9.953125 8.53125q0 1.34375 -0.4375 3.125l-1.1875 -0.375q0.359375 -1.859375 0.4375 -3.421875l1.34375 0.296875q0.21875 0.296875 -0.15625 0.375zm26.34375 -7.640625l-2.96875 0l0 4.375l2.15625 0l0 1.40625l-2.15625 0q-0.140625 5.640625 -3.328125 8.390625l-1.046875 -1.25q2.890625 -2.609375 2.890625 -7.140625l-2.296875 0l0 -1.40625l2.296875 0l0 -4.375l-1.78125 0l0 -1.40625l7.71875 0l0 8.671875q0 2.609375 0.296875 3.640625q0.671875 2.375 0.96875 -0.96875l1.34375 0.75q-0.828125 4.609375 -2.453125 3.125q-1.640625 -1.5 -1.640625 -5.65625l0 -8.15625zm-7.859375 13.953125l-1.265625 0l0 -0.671875l-2.59375 0l0 1.046875l-1.265625 0l0 -6.171875l5.125 0l0 5.796875zm-1.265625 -4.609375l-2.59375 0l0 2.75l2.59375 0l0 -2.75zm1.046875 -2.296875l-4.390625 0l0 -1.40625l4.390625 0l0 1.40625zm0 -2.671875l-4.390625 0l0 -1.40625l4.390625 0l0 1.40625zm1.109375 -2.59375l-6.53125 0l0 -1.40625l6.53125 0l0 1.40625zm-1.109375 -2.53125l-4.390625 0l0 -1.40625l4.390625 0l0 1.40625zm13.796875 14.109375q1.109375 -2.078125 1.484375 -4.078125l1.5625 0.4375q0.59375 0.078125 0 0.453125q-0.59375 2.0 -1.5625 3.859375l-1.484375 -0.671875zm15.734375 0.15625q-1.328125 -2.234375 -2.890625 -3.640625l1.265625 -0.96875q1.84375 1.5625 3.03125 3.5625l-1.40625 1.046875zm-10.171875 -4.3125q0.59375 0.078125 0.078125 0.4375l0 2.53125q0 0.59375 0.515625 0.59375l4.609375 0q0.515625 0 0.671875 -0.453125l0.296875 -1.109375l1.546875 0.296875l-0.359375 1.421875q-0.296875 1.25 -2.078125 1.25l-5.34375 0q-1.34375 0 -1.34375 -1.25l0 -3.71875l1.40625 0zm-1.484375 -1.265625l0 0.671875l-1.484375 0l0 -9.5l4.015625 0l0.4375 -1.78125l1.71875 0.140625q0.4375 0.234375 -0.234375 0.375l-0.4375 1.265625l5.859375 0l0 9.421875l-1.484375 0l0 -0.59375l-8.390625 0zm4.015625 0.15625q1.328125 0.953125 2.453125 2.59375l-1.265625 0.96875q-1.265625 -1.78125 -2.296875 -2.671875l1.109375 -0.890625zm-4.015625 -1.34375l8.390625 0l0 -1.40625l-8.390625 0l0 1.40625zm8.390625 -3.9375l-8.390625 0l0 1.34375l8.390625 0l0 -1.34375zm-8.390625 -1.1875l8.390625 0l0 -1.328125l-8.390625 0l0 1.328125z" fill-rule="nonzero"/><path fill="#cccccc" d="m416.1181 389.60104l65.51181 0l0 -4.6456604l9.291351 9.291321l-9.291351 9.291351l0 -4.6456604l-65.51181 0z" fill-rule="evenodd"/><path fill="#cccccc" d="m411.12335 138.97638l79.811035 0l0 230.51968l-79.811035 0z" fill-rule="evenodd"/><path fill="#000000" d="m445.09137 161.12497l2.53125 0l0 -1.78125l-2.53125 0l0 1.78125zm0 1.1875l0 1.78125l2.53125 0l0 -1.78125l-2.53125 0zm-3.640625 0l0 1.78125l2.375 0l0 -1.78125l-2.375 0zm0 -1.1875l2.375 0l0 -1.78125l-2.375 0l0 1.78125zm-2.140625 7.28125l0 -1.40625l4.515625 0l0 -1.71875l-1.84375 0l-1.78125 0l0 -7.125l8.671875 0l0 7.125l-3.78125 0l0 1.71875l4.828125 0l0 1.40625l-4.53125 0q1.859375 2.296875 4.75 3.703125l-0.59375 1.5625q-2.671875 -1.40625 -4.453125 -3.859375l0 5.046875l-1.265625 0l0 -4.75q-1.484375 2.375 -4.375 3.859375l-0.59375 -1.40625q3.046875 -1.5625 4.671875 -4.15625l-4.21875 0zm-6.3125 -7.640625l6.453125 0l0 1.40625l-6.453125 0l0 -1.40625zm5.421875 -1.1875l-4.609375 0l0 -1.421875l4.609375 0l0 1.421875zm-4.609375 5.265625l0 -1.40625l4.609375 0l0 1.40625l-4.609375 0zm0 1.265625l4.609375 0l0 1.40625l-4.609375 0l0 -1.40625zm1.109375 3.859375l0 2.671875l2.453125 0l0 -2.671875l-2.453125 0zm0 3.859375l0 1.03125l-1.25 0l0 -6.078125l4.96875 0l0 5.9375l-1.265625 0l0 -0.890625l-2.453125 0zm23.234375 -4.609375l-1.625 -1.859375l0 7.4375l-1.484375 0l0 -7.0625q-1.125 2.078125 -2.375 3.1875l-0.96875 -1.40625q2.515625 -2.453125 3.34375 -5.5625l-2.75 0l0 -1.40625l2.75 0l0 -2.078125l-2.3125 0.359375l-0.4375 -1.484375q3.5625 -0.59375 5.71875 -1.40625l1.03125 1.40625q0.078125 0.53125 -0.4375 0.234375l-2.078125 0.59375l0 2.375l2.671875 0l0 1.40625l-2.671875 0l0 1.484375q1.1875 0.8125 2.734375 2.453125l-1.109375 1.328125zm6.609375 -1.703125l0 1.921875l3.109375 0l0 1.421875l-3.109375 0l0 2.0l4.15625 0l0 1.40625l-10.546875 0l0 -1.40625l4.90625 0l0 -2.0l-3.34375 0l0 -1.421875l3.34375 0l0 -1.921875l-3.640625 0l0 -1.40625l8.765625 0l0 1.40625l-3.640625 0zm1.703125 -7.28125l-4.671875 0l0 2.671875l4.671875 0l0 -2.671875zm0 4.75l0 -0.65625l-4.671875 0l0 0.734375l-1.484375 0l0 -6.234375l7.640625 0l0 6.15625l-1.484375 0z" fill-rule="nonzero"/><path fill="#000000" d="m441.31012 204.09372l3.484375 0l0 1.40625l-3.484375 0l0 2.078125l1.78125 0q2.078125 -2.0 3.78125 -4.453125l1.34375 1.046875q0.140625 0.296875 -0.453125 0.296875q-1.921875 2.21875 -2.75 3.109375l4.6875 0l0 1.40625l-5.875 0q-2.140625 1.859375 -3.921875 3.125l0 0.8125q3.109375 -0.8125 6.375 -2.15625l1.046875 1.421875q0.0625 0.515625 -0.453125 0.21875q-3.9375 1.328125 -6.96875 1.921875l0 1.859375q0 0.59375 0.515625 0.59375l5.859375 0q0.8125 0 1.109375 -1.265625l0.234375 -1.03125l1.546875 0.375l-0.359375 1.546875q-0.453125 1.796875 -1.71875 1.796875l-7.484375 0q-1.1875 0 -1.1875 -1.265625l0 -3.9375q-2.15625 1.328125 -4.53125 2.21875l-0.59375 -1.40625q2.671875 -0.890625 5.125 -2.453125l0 -1.109375l1.1875 0.296875q0.890625 -0.515625 2.078125 -1.5625l-8.015625 0l0 -1.40625l6.15625 0l0 -2.078125l-4.3125 0l0 -1.40625l4.3125 0l0 -2.15625l1.40625 0q0.59375 0.078125 0.078125 0.453125l0 1.703125zm12.984375 0.078125l0.890625 -2.609375l1.34375 0.375q0.890625 0.296875 0 0.515625l-0.828125 1.71875l2.96875 0l0 6.0l-1.484375 0l0 -0.515625l-3.1875 0l0 1.78125l4.828125 0l0 6.09375l-1.484375 0l0 -0.453125l-3.34375 0l0 1.125l-1.484375 0l0 -14.03125l1.78125 0zm2.890625 1.40625l-3.1875 0l0 2.671875l3.1875 0l0 -2.671875zm-3.1875 7.265625l0 2.828125l3.34375 0l0 -2.828125l-3.34375 0zm5.265625 -8.453125l0 -1.40625l9.65625 0l0 1.40625l-4.15625 0l0 2.75l3.484375 0l0 7.859375q0 1.1875 -1.1875 1.1875l-1.109375 0l-0.21875 -1.40625l0.734375 0q0.296875 0 0.296875 -0.296875l0 -5.9375l-2.0 0l0 10.171875l-1.484375 0l0 -10.171875l-1.78125 0l0 7.796875l-1.484375 0l0 -9.203125l3.265625 0l0 -2.75l-4.015625 0z" fill-rule="nonzero"/><path fill="#000000" d="m446.65387 255.8906q0.4375 0.4375 -0.21875 0.359375l-3.9375 1.5625l0 0.296875l6.671875 0l0 1.40625l-6.671875 0l0 2.09375q0 1.1875 -0.96875 1.1875l-1.703125 0l-0.375 -1.421875l1.265625 0q0.296875 0 0.296875 -0.296875l0 -1.5625l-6.984375 0l0 -1.40625l6.984375 0l0 -1.03125l0.671875 0.140625l1.625 -0.671875l-6.90625 0l0 -1.1875l8.765625 0l0.296875 -0.296875l1.1875 0.828125zm-11.578125 -9.5l1.109375 0.296875l2.078125 -0.53125l0.59375 0.75q0.453125 0.515625 -0.21875 0.375l-2.296875 0.21875l0 0.96875l2.296875 0l0 1.1875l-2.296875 0l0 1.03125l2.296875 0l0 1.1875l-2.296875 0l0 1.109375l10.453125 0l0 -1.109375l-2.296875 0l0 -1.1875l2.296875 0l0 -1.03125l-2.296875 0l0 -1.1875l2.296875 0l0 -0.96875l-2.296875 0l0 -1.1875l3.5625 0l0 6.671875l1.5625 0l0 3.125l-1.484375 0l0 -1.9375l-13.0625 0l0 1.9375l-1.484375 0l0 -3.125l1.484375 0l0 -6.59375zm6.609375 2.0q-0.96875 0.671875 -2.234375 1.109375l-0.515625 -0.890625q1.1875 -0.4375 1.703125 -0.8125q-0.59375 -0.296875 -1.1875 -0.671875l0.59375 -0.734375q0.8125 0.296875 1.5625 0.734375q0.59375 -0.515625 1.265625 -1.03125l0.734375 0.59375q0.375 0.296875 -0.140625 0.296875q-0.53125 0.359375 -0.890625 0.734375q0.59375 0.375 1.109375 0.671875l-0.671875 0.8125q-0.671875 -0.375 -1.328125 -0.8125zm-2.609375 3.484375q1.046875 -0.375 1.859375 -0.890625q-0.515625 -0.375 -1.1875 -0.734375l0.59375 -0.828125q0.8125 0.453125 1.484375 0.890625q0.75 -0.4375 1.34375 -0.953125l0.734375 0.59375q0.375 0.296875 -0.140625 0.296875q-0.453125 0.359375 -0.96875 0.65625q0.671875 0.375 1.1875 0.75l-0.515625 0.96875q-0.75 -0.453125 -1.5625 -0.96875q-1.265625 0.8125 -2.234375 1.109375l-0.59375 -0.890625zm26.5 1.40625l-0.296875 6.015625q-0.140625 3.125 -2.15625 3.125l-2.21875 0l-0.21875 -1.640625l1.84375 0q0.96875 0 1.046875 -1.265625l0.296875 -4.8125l-4.078125 0l-0.078125 0.59375q-0.515625 4.078125 -5.859375 7.5l-1.125 -1.421875q4.828125 -2.75 5.34375 -5.78125l0.15625 -0.890625l-2.828125 0l0 -1.421875l10.171875 0zm-6.671875 -5.859375q-1.78125 3.859375 -5.71875 7.046875l-1.1875 -1.40625q3.859375 -2.671875 5.640625 -6.90625l1.40625 0.890625q0.453125 0.296875 -0.140625 0.375zm9.203125 7.046875q-4.09375 -2.375 -6.015625 -7.78125l1.40625 -0.59375q1.78125 4.75 5.71875 6.828125l-1.109375 1.546875z" fill-rule="nonzero"/><path fill="#000000" d="m439.01324 302.7031l-4.984375 1.78125q-0.0625 0.515625 -0.359375 0.21875l-0.59375 -1.703125l2.296875 -0.671875l0 -6.0l-2.15625 0l0 -1.421875l2.15625 0l0 -4.15625l1.40625 0q0.59375 0.078125 0.078125 0.453125l0 3.703125l1.921875 0l0 1.421875l-1.921875 0l0 5.640625l2.15625 -0.75l0 1.484375zm8.15625 2.15625q0.75 0 0.96875 -0.75l0.4375 -1.546875l1.640625 0.515625l-0.375 1.40625q-0.4375 1.78125 -2.15625 1.78125l-6.15625 0q-1.328125 0 -1.328125 -1.265625l0 -7.046875l-1.9375 0.75l-0.4375 -1.484375l2.375 -0.828125l0 -4.21875l1.40625 0q0.59375 0.0625 0.078125 0.4375l0 3.265625l1.78125 -0.671875l0 -5.046875l1.40625 0q0.59375 0.078125 0.078125 0.453125l0 4.078125l2.515625 -0.96875l0.15625 -0.296875l1.546875 1.046875l-0.296875 0.21875l0 5.640625q0 1.1875 -1.1875 1.1875l-1.484375 0l-0.359375 -1.40625l1.25 0q0.296875 0 0.296875 -0.296875l0 -4.453125l-2.4375 0.890625l0 6.375l-1.484375 0l0 -5.859375l-1.78125 0.671875l0 6.828125q0 0.59375 0.515625 0.59375l4.96875 0zm13.140625 -1.9375q0.734375 1.5625 0.96875 2.75l-1.1875 0.375q-0.296875 -1.40625 -0.96875 -2.890625l1.1875 -0.234375zm-2.0 0.234375q0.359375 1.40625 0.65625 2.890625l-1.25 0.296875q-0.296875 -1.640625 -0.59375 -3.046875l1.1875 -0.140625zm-2.078125 0.21875q0.21875 1.703125 0.296875 2.96875l-1.34375 0q0 -1.109375 -0.078125 -2.96875l1.125 0zm-4.09375 3.046875q0.671875 -1.421875 1.046875 -3.203125l1.109375 0.234375q-0.375 2.15625 -0.890625 3.34375l-1.265625 -0.375zm9.28125 -5.421875l0 1.1875l-8.53125 0.515625q-0.375 0.671875 -0.515625 -0.078125l-0.296875 -1.328125l3.921875 -0.078125l0 -1.5625l-3.265625 0l0 -1.1875l3.265625 0l0 -1.25l-1.625 0l-1.640625 0l0 -6.984375l7.953125 0l0 6.984375l-3.421875 0l0 1.25l3.484375 0l0 1.1875l-3.484375 0l0 1.484375l4.15625 -0.140625zm-6.609375 -5.796875q-0.140625 -1.328125 -0.4375 -2.734375l0.8125 -0.234375q0.375 1.484375 0.453125 2.828125l-0.828125 0.140625zm4.15625 -2.375q-0.140625 1.125 -0.515625 2.3125l-0.890625 -0.078125q0.375 -1.34375 0.515625 -2.75l0.890625 0.078125q0.53125 0.140625 0 0.4375zm5.046875 5.421875l0 -8.234375l1.421875 0q0.59375 0.078125 0.0625 0.4375l0 2.609375l3.5625 0l0 1.40625l-3.5625 0l0 3.78125l3.265625 0l0 8.09375l-1.484375 0l0 -1.03125l-3.78125 0l0 1.328125l-1.484375 0l0 -8.390625l2.0 0zm-4.59375 -2.21875l0 -4.609375l-2.15625 0l0 4.609375l2.15625 0zm-3.421875 -4.609375l-2.0 0l0 4.609375l2.0 0l0 -4.609375zm11.28125 12.46875l0 -4.234375l-3.78125 0l0 4.234375l3.78125 0z" fill-rule="nonzero"/><path fill="#000000" d="m437.2945 334.60934q-0.4375 2.890625 -0.953125 4.234375l0.296875 0.0625q0.21875 0.234375 -0.15625 0.453125l0 11.4375l-1.484375 0l0 -9.0625q-0.21875 0.59375 -1.109375 1.625l-0.96875 -1.25q2.453125 -2.75 3.046875 -8.171875l1.484375 0.21875q0.21875 0.234375 -0.15625 0.453125zm2.375 10.90625q0 3.125 -1.546875 4.984375l-1.265625 -1.046875q1.328125 -1.640625 1.328125 -5.203125l0 -5.34375l2.75 0l0 -1.625l-3.265625 0l0 -1.40625l3.265625 0l0 -2.015625l1.40625 0q0.59375 0.078125 0.078125 0.453125l0 1.5625l2.375 0l0 -2.015625l1.40625 0q0.59375 0.078125 0.078125 0.453125l0 1.5625l3.046875 0l0 1.40625l-3.046875 0l0 1.625l3.5625 0l0 1.421875l-10.171875 0l0 5.1875zm7.875 0.671875l0 -1.1875l-2.15625 0l0 1.1875l2.15625 0zm-5.5625 -1.1875l0 1.1875l2.140625 0l0 -1.1875l-2.140625 0zm0 -2.453125l0 1.265625l2.140625 0l0 -1.265625l-2.140625 0zm3.40625 1.265625l2.15625 0l0 -1.265625l-2.15625 0l0 1.265625zm1.859375 5.640625q0.296875 0 0.296875 -0.296875l0 -1.78125l-2.15625 0l0 2.96875l-1.265625 0l0 -2.96875l-2.140625 0l0 3.484375l-1.265625 0l0 -9.5l8.09375 0l0 8.25q0 1.03125 -0.890625 1.03125l-1.265625 0l-0.296875 -1.1875l0.890625 0zm-4.828125 -12.171875l0 1.625l2.375 0l0 -1.625l-2.375 0zm21.890625 -3.484375q0.59375 0.0625 0.078125 0.4375l0 3.125l4.078125 0l0 1.40625l-4.078125 0l0 3.703125l3.34375 0l0 1.421875l-3.34375 0l0 4.8125l4.53125 0l0 1.421875l-9.953125 0l0 -1.421875l3.9375 0l0 -4.8125l-3.046875 0l0 -1.421875l3.046875 0l0 -3.703125l-3.5625 0l0 -1.40625l3.5625 0l0 -3.5625l1.40625 0zm-6.453125 8.015625l0 1.40625l-4.671875 0l0 -1.40625l4.671875 0zm0 -7.796875l0 1.40625l-4.671875 0l0 -1.40625l4.671875 0zm0.96875 2.453125l0 1.40625l-6.828125 0l0 -1.40625l6.828125 0zm-0.96875 2.671875l0 1.40625l-4.671875 0l0 -1.40625l4.671875 0zm0.375 5.5625l0 5.859375l-1.484375 0l0 -0.734375l-2.453125 0l0 0.890625l-1.484375 0l0 -6.015625l5.421875 0zm-3.9375 3.9375l2.453125 0l0 -2.75l-2.453125 0l0 2.75z" fill-rule="nonzero"/><path fill="#cccccc" d="m655.54596 389.60104l61.858215 0l0 -4.6456604l9.291382 9.291321l-9.291382 9.291351l0 -4.6456604l-61.858215 0z" fill-rule="evenodd"/><path fill="#fce5cd" d="m513.64307 342.1264l0 0c0 -11.675049 9.464478 -21.139526 21.139526 -21.139526l84.55554 0l0 0c5.6065674 0 10.9835205 2.2272034 14.947937 6.19162c3.9644165 3.964447 6.1915894 9.34137 6.1915894 14.9479065l0 104.24063c0 11.675049 -9.464478 21.139526 -21.139526 21.139526l-84.55554 0c-11.675049 0 -21.139526 -9.464478 -21.139526 -21.139526z" fill-rule="evenodd"/><path fill="#000000" d="m562.5916 346.85422q0.734375 0.0625 0.078125 0.4375l0 11.578125l-1.484375 0l0 -9.5q-0.671875 1.34375 -1.484375 2.234375l-0.96875 -1.5625q2.59375 -2.671875 3.484375 -8.09375l1.640625 0.453125q0.65625 0.21875 -0.15625 0.515625q-0.4375 2.078125 -1.109375 3.9375zm7.640625 -5.046875q0.59375 0.0625 0.078125 0.4375l0 1.859375l5.265625 0l0 1.40625l-5.265625 0l0 1.640625l4.234375 0l0 5.640625l-1.484375 0l0 -0.59375l-2.75 0q0 1.484375 -0.59375 2.890625q1.859375 1.265625 6.234375 2.0l-0.515625 1.640625q-3.9375 -0.515625 -6.46875 -2.375q-1.84375 1.921875 -5.265625 2.59375l-0.515625 -1.40625q3.109375 -0.53125 4.671875 -2.078125q-1.484375 -1.34375 -2.078125 -2.671875l0.890625 -0.59375l-2.078125 0l0 -5.046875l4.234375 0l0 -1.640625l-5.046875 0l0 -1.40625l5.046875 0l0 -2.296875l1.40625 0zm-1.40625 9.203125l0 -2.671875l-2.75 0l0 2.671875l2.75 0zm4.234375 0l0 -2.671875l-2.75 0l0 2.671875l2.75 0zm-4.53125 3.1875q0.296875 -0.890625 0.296875 -2.0l-1.859375 0q0.59375 1.03125 1.5625 2.0zm23.890625 -1.640625l-4.8125 0l0 5.65625l-1.484375 0l0 -5.65625l-4.453125 0q-0.15625 3.859375 -2.3125 6.171875l-1.1875 -1.1875q2.015625 -2.234375 2.015625 -5.203125l0 -9.5l13.71875 0l0 14.171875q0 1.203125 -1.1875 1.203125l-2.078125 0l-0.359375 -1.640625l1.84375 0q0.296875 0 0.296875 -0.296875l0 -3.71875zm-10.75 -4.15625l0 2.75l4.453125 0l0 -2.75l-4.453125 0zm0 -4.15625l0 2.75l4.453125 0l0 -2.75l-4.453125 0zm5.9375 4.15625l0 2.75l4.8125 0l0 -2.75l-4.8125 0zm0 -4.15625l0 2.75l4.8125 0l0 -2.75l-4.8125 0z" fill-rule="nonzero"/><path fill="#000000" d="m547.6914 382.86984l0 -13.375l1.484375 0l0 1.25q0.53125 -0.734375 1.1875 -1.09375q0.671875 -0.375 1.625 -0.375q1.234375 0 2.171875 0.640625q0.953125 0.625 1.4375 1.796875q0.484375 1.15625 0.484375 2.546875q0 1.484375 -0.53125 2.671875q-0.53125 1.1875 -1.546875 1.828125q-1.015625 0.625 -2.140625 0.625q-0.8125 0 -1.46875 -0.34375q-0.65625 -0.34375 -1.0625 -0.875l0 4.703125l-1.640625 0zm1.484375 -8.484375q0 1.859375 0.75 2.765625q0.765625 0.890625 1.828125 0.890625q1.09375 0 1.875 -0.921875q0.78125 -0.9375 0.78125 -2.875q0 -1.84375 -0.765625 -2.765625q-0.75 -0.921875 -1.8125 -0.921875q-1.046875 0 -1.859375 0.984375q-0.796875 0.96875 -0.796875 2.84375zm15.203796 3.59375q-0.921875 0.765625 -1.765625 1.09375q-0.828125 0.3125 -1.796875 0.3125q-1.59375 0 -2.453125 -0.78125q-0.859375 -0.78125 -0.859375 -1.984375q0 -0.71875 0.328125 -1.296875q0.328125 -0.59375 0.84375 -0.9375q0.53125 -0.359375 1.1875 -0.546875q0.46875 -0.125 1.453125 -0.25q1.984375 -0.234375 2.921875 -0.5625q0.015625 -0.34375 0.015625 -0.421875q0 -1.0 -0.46875 -1.421875q-0.625 -0.546875 -1.875 -0.546875q-1.15625 0 -1.703125 0.40625q-0.546875 0.40625 -0.8125 1.421875l-1.609375 -0.21875q0.21875 -1.015625 0.71875 -1.640625q0.5 -0.640625 1.453125 -0.984375q0.953125 -0.34375 2.1875 -0.34375q1.25 0 2.015625 0.296875q0.78125 0.28125 1.140625 0.734375q0.375 0.4375 0.515625 1.109375q0.078125 0.421875 0.078125 1.515625l0 2.1875q0 2.28125 0.109375 2.890625q0.109375 0.59375 0.40625 1.15625l-1.703125 0q-0.265625 -0.515625 -0.328125 -1.1875zm-0.140625 -3.671875q-0.890625 0.375 -2.671875 0.625q-1.015625 0.140625 -1.4375 0.328125q-0.421875 0.1875 -0.65625 0.53125q-0.21875 0.34375 -0.21875 0.78125q0 0.65625 0.5 1.09375q0.5 0.4375 1.453125 0.4375q0.9375 0 1.671875 -0.40625q0.75 -0.421875 1.09375 -1.140625q0.265625 -0.5625 0.265625 -1.640625l0 -0.609375zm4.2038574 4.859375l0 -9.671875l1.46875 0l0 1.375q1.0625 -1.59375 3.078125 -1.59375q0.875 0 1.609375 0.3125q0.734375 0.3125 1.09375 0.828125q0.375 0.5 0.515625 1.203125q0.09375 0.453125 0.09375 1.59375l0 5.953125l-1.640625 0l0 -5.890625q0 -1.0 -0.203125 -1.484375q-0.1875 -0.5 -0.671875 -0.796875q-0.484375 -0.296875 -1.140625 -0.296875q-1.046875 0 -1.8125 0.671875q-0.75 0.65625 -0.75 2.515625l0 5.28125l-1.640625 0zm16.641357 0l0 -1.21875q-0.90625 1.4375 -2.703125 1.4375q-1.15625 0 -2.125 -0.640625q-0.96875 -0.640625 -1.5 -1.78125q-0.53125 -1.140625 -0.53125 -2.625q0 -1.453125 0.484375 -2.625q0.484375 -1.1875 1.4375 -1.8125q0.96875 -0.625 2.171875 -0.625q0.875 0 1.546875 0.375q0.6875 0.359375 1.109375 0.953125l0 -4.796875l1.640625 0l0 13.359375l-1.53125 0zm-5.171875 -4.828125q0 1.859375 0.78125 2.78125q0.78125 0.921875 1.84375 0.921875q1.078125 0 1.828125 -0.875q0.75 -0.890625 0.75 -2.6875q0 -1.984375 -0.765625 -2.90625q-0.765625 -0.9375 -1.890625 -0.9375q-1.078125 0 -1.8125 0.890625q-0.734375 0.890625 -0.734375 2.8125zm15.594482 3.640625q-0.921875 0.765625 -1.765625 1.09375q-0.828125 0.3125 -1.796875 0.3125q-1.59375 0 -2.453125 -0.78125q-0.859375 -0.78125 -0.859375 -1.984375q0 -0.71875 0.328125 -1.296875q0.328125 -0.59375 0.84375 -0.9375q0.53125 -0.359375 1.1875 -0.546875q0.46875 -0.125 1.453125 -0.25q1.984375 -0.234375 2.921875 -0.5625q0.015625 -0.34375 0.015625 -0.421875q0 -1.0 -0.46875 -1.421875q-0.625 -0.546875 -1.875 -0.546875q-1.15625 0 -1.703125 0.40625q-0.546875 0.40625 -0.8125 1.421875l-1.609375 -0.21875q0.21875 -1.015625 0.71875 -1.640625q0.5 -0.640625 1.453125 -0.984375q0.953125 -0.34375 2.1875 -0.34375q1.25 0 2.015625 0.296875q0.78125 0.28125 1.140625 0.734375q0.375 0.4375 0.515625 1.109375q0.078125 0.421875 0.078125 1.515625l0 2.1875q0 2.28125 0.109375 2.890625q0.109375 0.59375 0.40625 1.15625l-1.703125 0q-0.265625 -0.515625 -0.328125 -1.1875zm-0.140625 -3.671875q-0.890625 0.375 -2.671875 0.625q-1.015625 0.140625 -1.4375 0.328125q-0.421875 0.1875 -0.65625 0.53125q-0.21875 0.34375 -0.21875 0.78125q0 0.65625 0.5 1.09375q0.5 0.4375 1.453125 0.4375q0.9375 0 1.671875 -0.40625q0.75 -0.421875 1.09375 -1.140625q0.265625 -0.5625 0.265625 -1.640625l0 -0.609375zm3.5475464 1.96875l1.625 -0.25q0.125 0.96875 0.75 1.5q0.625 0.515625 1.75 0.515625q1.125 0 1.671875 -0.453125q0.546875 -0.46875 0.546875 -1.09375q0 -0.546875 -0.484375 -0.875q-0.328125 -0.21875 -1.671875 -0.546875q-1.8125 -0.46875 -2.515625 -0.796875q-0.6875 -0.328125 -1.046875 -0.90625q-0.359375 -0.59375 -0.359375 -1.3125q0 -0.640625 0.296875 -1.1875q0.296875 -0.5625 0.8125 -0.921875q0.375 -0.28125 1.03125 -0.46875q0.671875 -0.203125 1.421875 -0.203125q1.140625 0 2.0 0.328125q0.859375 0.328125 1.265625 0.890625q0.421875 0.5625 0.578125 1.5l-1.609375 0.21875q-0.109375 -0.75 -0.640625 -1.171875q-0.515625 -0.421875 -1.46875 -0.421875q-1.140625 0 -1.625 0.375q-0.46875 0.375 -0.46875 0.875q0 0.3125 0.1875 0.578125q0.203125 0.265625 0.640625 0.4375q0.234375 0.09375 1.4375 0.421875q1.75 0.453125 2.4375 0.75q0.6875 0.296875 1.078125 0.859375q0.390625 0.5625 0.390625 1.40625q0 0.828125 -0.484375 1.546875q-0.46875 0.71875 -1.375 1.125q-0.90625 0.390625 -2.046875 0.390625q-1.875 0 -2.875 -0.78125q-0.984375 -0.78125 -1.25 -2.328125z" fill-rule="nonzero"/><path fill="#000000" d="m558.87286 400.86984q1.78125 -0.59375 2.96875 -1.640625l0 -4.515625l-2.671875 0l0 -1.421875l4.15625 0l0 6.09375q1.34375 1.484375 3.796875 1.484375l9.046875 0l-0.375 1.40625l-8.671875 0q-3.203125 0 -4.75 -2.078125q-0.890625 1.34375 -2.671875 2.3125l-0.828125 -1.640625zm6.6875 -8.90625q-0.890625 1.1875 -1.484375 1.5625l-0.75 -1.640625q2.828125 -2.515625 3.71875 -6.234375l1.625 0.453125q0.59375 0.21875 -0.140625 0.4375q-0.375 1.109375 -1.046875 2.296875l2.3125 0q1.03125 -1.546875 1.484375 -3.03125l1.625 0.59375q0.515625 0.359375 -0.21875 0.4375q-0.515625 0.890625 -1.40625 2.0l3.921875 0l0 1.1875l-3.921875 0l0 1.859375l3.328125 0l0 1.1875l-3.328125 0l0 1.703125l3.265625 0l0 1.1875l-3.265625 0l0 2.015625l4.453125 0l0 1.1875l-8.6875 0l0 0.8125l-1.484375 0l0 -8.015625zm1.484375 4.0l0 2.015625l2.75 0l0 -2.015625l-2.75 0zm0 -2.890625l0 1.703125l2.75 0l0 -1.703125l-2.75 0zm0 -3.046875l0 1.859375l2.75 0l0 -1.859375l-2.75 0zm-4.234375 -0.21875q-0.96875 -1.109375 -2.59375 -2.15625l1.03125 -1.1875q1.859375 1.046875 2.75 2.078125l-1.1875 1.265625zm20.9375 -2.296875q-2.3125 2.8125 -4.234375 3.9375l-0.890625 -1.34375q2.078125 -1.1875 4.15625 -3.9375l1.109375 0.96875q0.375 0.453125 -0.140625 0.375zm-1.046875 15.21875l-1.484375 0l0 -7.875q-0.734375 0.8125 -2.21875 1.78125l-0.96875 -1.484375q3.1875 -1.921875 5.421875 -5.421875l1.1875 0.96875q0.359375 0.453125 -0.15625 0.375q-0.890625 1.1875 -1.78125 2.296875l0 9.359375zm10.84375 -15.59375l0 1.40625l-8.015625 0l0 -1.40625l8.015625 0zm-8.84375 6.15625l0 -1.40625l10.328125 0l0 1.40625l-3.125 0l0 7.578125q0 1.5625 -1.265625 1.5625l-2.0 0l-0.296875 -1.421875l1.78125 0q0.296875 0 0.296875 -0.296875l0 -7.421875l-5.71875 0z" fill-rule="nonzero"/><path fill="#000000" d="m530.5772 423.16672l0 -9.671875l1.46875 0l0 1.46875q0.5625 -1.03125 1.03125 -1.359375q0.484375 -0.328125 1.0625 -0.328125q0.828125 0 1.6875 0.53125l-0.5625 1.515625q-0.609375 -0.359375 -1.203125 -0.359375q-0.546875 0 -0.96875 0.328125q-0.421875 0.328125 -0.609375 0.890625q-0.28125 0.875 -0.28125 1.921875l0 5.0625l-1.625 0zm12.5564575 0l0 -1.421875q-1.125 1.640625 -3.0625 1.640625q-0.859375 0 -1.609375 -0.328125q-0.734375 -0.328125 -1.09375 -0.828125q-0.359375 -0.5 -0.5 -1.21875q-0.109375 -0.46875 -0.109375 -1.53125l0 -5.984375l1.640625 0l0 5.359375q0 1.28125 0.109375 1.734375q0.15625 0.640625 0.65625 1.015625q0.5 0.375 1.234375 0.375q0.734375 0 1.375 -0.375q0.65625 -0.390625 0.921875 -1.03125q0.265625 -0.65625 0.265625 -1.890625l0 -5.1875l1.640625 0l0 9.671875l-1.46875 0zm4.0007324 0l0 -13.359375l1.640625 0l0 13.359375l-1.640625 0zm10.81665 -3.109375l1.6875 0.203125q-0.40625 1.484375 -1.484375 2.3125q-1.078125 0.8125 -2.765625 0.8125q-2.125 0 -3.375 -1.296875q-1.234375 -1.3125 -1.234375 -3.671875q0 -2.453125 1.25 -3.796875q1.265625 -1.34375 3.265625 -1.34375q1.9375 0 3.15625 1.328125q1.234375 1.3125 1.234375 3.703125q0 0.15625 0 0.4375l-7.21875 0q0.09375 1.59375 0.90625 2.453125q0.8125 0.84375 2.015625 0.84375q0.90625 0 1.546875 -0.46875q0.640625 -0.484375 1.015625 -1.515625zm-5.390625 -2.65625l5.40625 0q-0.109375 -1.21875 -0.625 -1.828125q-0.78125 -0.953125 -2.03125 -0.953125q-1.125 0 -1.90625 0.765625q-0.765625 0.75 -0.84375 2.015625zm15.824646 5.765625l-1.515625 0l0 -13.359375l1.640625 0l0 4.765625q1.046875 -1.296875 2.65625 -1.296875q0.890625 0 1.6875 0.359375q0.796875 0.359375 1.3125 1.015625q0.515625 0.640625 0.796875 1.5625q0.296875 0.921875 0.296875 1.96875q0 2.484375 -1.234375 3.84375q-1.21875 1.359375 -2.953125 1.359375q-1.703125 0 -2.6875 -1.4375l0 1.21875zm-0.015625 -4.90625q0 1.734375 0.484375 2.515625q0.765625 1.265625 2.09375 1.265625q1.078125 0 1.859375 -0.9375q0.78125 -0.9375 0.78125 -2.78125q0 -1.890625 -0.75 -2.796875q-0.75 -0.90625 -1.828125 -0.90625q-1.0625 0 -1.859375 0.9375q-0.78125 0.9375 -0.78125 2.703125zm15.203857 3.71875q-0.921875 0.765625 -1.765625 1.09375q-0.828125 0.3125 -1.796875 0.3125q-1.59375 0 -2.453125 -0.78125q-0.859375 -0.78125 -0.859375 -1.984375q0 -0.71875 0.328125 -1.296875q0.328125 -0.59375 0.84375 -0.9375q0.53125 -0.359375 1.1875 -0.546875q0.46875 -0.125 1.453125 -0.25q1.984375 -0.234375 2.921875 -0.5625q0.015625 -0.34375 0.015625 -0.421875q0 -1.0 -0.46875 -1.421875q-0.625 -0.546875 -1.875 -0.546875q-1.15625 0 -1.703125 0.40625q-0.546875 0.40625 -0.8125 1.421875l-1.609375 -0.21875q0.21875 -1.015625 0.71875 -1.640625q0.5 -0.640625 1.453125 -0.984375q0.953125 -0.34375 2.1875 -0.34375q1.25 0 2.015625 0.296875q0.78125 0.28125 1.140625 0.734375q0.375 0.4375 0.515625 1.109375q0.078125 0.421875 0.078125 1.515625l0 2.1875q0 2.28125 0.109375 2.890625q0.109375 0.59375 0.40625 1.15625l-1.703125 0q-0.265625 -0.515625 -0.328125 -1.1875zm-0.140625 -3.671875q-0.890625 0.375 -2.671875 0.625q-1.015625 0.140625 -1.4375 0.328125q-0.421875 0.1875 -0.65625 0.53125q-0.21875 0.34375 -0.21875 0.78125q0 0.65625 0.5 1.09375q0.5 0.4375 1.453125 0.4375q0.9375 0 1.671875 -0.40625q0.75 -0.421875 1.09375 -1.140625q0.265625 -0.5625 0.265625 -1.640625l0 -0.609375zm3.5476074 1.96875l1.625 -0.25q0.125 0.96875 0.75 1.5q0.625 0.515625 1.75 0.515625q1.125 0 1.671875 -0.453125q0.546875 -0.46875 0.546875 -1.09375q0 -0.546875 -0.484375 -0.875q-0.328125 -0.21875 -1.671875 -0.546875q-1.8125 -0.46875 -2.515625 -0.796875q-0.6875 -0.328125 -1.046875 -0.90625q-0.359375 -0.59375 -0.359375 -1.3125q0 -0.640625 0.296875 -1.1875q0.296875 -0.5625 0.8125 -0.921875q0.375 -0.28125 1.03125 -0.46875q0.671875 -0.203125 1.421875 -0.203125q1.140625 0 2.0 0.328125q0.859375 0.328125 1.265625 0.890625q0.421875 0.5625 0.578125 1.5l-1.609375 0.21875q-0.109375 -0.75 -0.640625 -1.171875q-0.515625 -0.421875 -1.46875 -0.421875q-1.140625 0 -1.625 0.375q-0.46875 0.375 -0.46875 0.875q0 0.3125 0.1875 0.578125q0.203125 0.265625 0.640625 0.4375q0.234375 0.09375 1.4375 0.421875q1.75 0.453125 2.4375 0.75q0.6875 0.296875 1.078125 0.859375q0.390625 0.5625 0.390625 1.40625q0 0.828125 -0.484375 1.546875q-0.46875 0.71875 -1.375 1.125q-0.90625 0.390625 -2.046875 0.390625q-1.875 0 -2.875 -0.78125q-0.984375 -0.78125 -1.25 -2.328125zm16.609375 -0.21875l1.6875 0.203125q-0.40625 1.484375 -1.484375 2.3125q-1.078125 0.8125 -2.765625 0.8125q-2.125 0 -3.375 -1.296875q-1.234375 -1.3125 -1.234375 -3.671875q0 -2.453125 1.25 -3.796875q1.265625 -1.34375 3.265625 -1.34375q1.9375 0 3.15625 1.328125q1.234375 1.3125 1.234375 3.703125q0 0.15625 0 0.4375l-7.21875 0q0.09375 1.59375 0.90625 2.453125q0.8125 0.84375 2.015625 0.84375q0.90625 0 1.546875 -0.46875q0.640625 -0.484375 1.015625 -1.515625zm-5.390625 -2.65625l5.40625 0q-0.109375 -1.21875 -0.625 -1.828125q-0.78125 -0.953125 -2.03125 -0.953125q-1.125 0 -1.90625 0.765625q-0.765625 0.75 -0.84375 2.015625z" fill-rule="nonzero"/><path fill="#000000" d="m614.69977 410.41672q0 -1.171875 -0.0625 -2.265625l1.453125 0q-0.078125 1.015625 -0.078125 2.265625l4.515625 0q1.03125 0 2.484375 -0.078125l0 1.390625q-1.453125 -0.078125 -2.484375 -0.078125l-2.609375 0q0.796875 1.171875 2.390625 2.046875q1.609375 0.875 3.65625 1.375q-0.734375 0.59375 -1.03125 1.46875q-2.25 -0.8125 -3.828125 -1.96875q-1.5625 -1.171875 -2.65625 -2.921875l-0.4375 0l0 4.015625l4.59375 0q-0.078125 1.3125 -0.078125 2.90625q0 1.53125 0.078125 3.0625l-10.34375 0q0.078125 -1.390625 0.078125 -2.984375q0 -1.671875 -0.078125 -2.984375q-0.953125 0.578125 -2.265625 1.234375q-0.4375 -0.796875 -1.015625 -1.3125q1.609375 -0.359375 3.203125 -1.453125q1.609375 -1.09375 2.546875 -2.484375l-2.109375 0q-1.3125 0 -2.765625 0.078125l0 -1.390625q1.453125 0.078125 2.765625 0.078125l4.078125 0zm6.265625 12.75q1.25 0 2.40625 -0.078125l0 1.3125q-2.765625 -0.0625 -3.859375 -0.0625l-9.25 0q-1.3125 0 -2.625 0.0625l0 -1.3125q1.390625 0.078125 2.625 0.078125l10.703125 0zm-1.734375 -2.703125l0 -1.3125l-7.59375 0l0 1.3125l7.59375 0zm0 -2.390625l0 -1.25l-7.59375 0l0 1.25l7.59375 0zm-4.53125 -2.40625l0 -4.015625l-0.359375 0q-0.796875 1.234375 -1.75 2.1875q-0.953125 0.953125 -2.25 1.828125l4.359375 0z" fill-rule="nonzero"/><path fill="#000000" d="m576.24786 444.86984l0 -8.984375l-0.96875 0.96875l-0.890625 -1.40625q2.296875 -1.78125 3.34375 -5.875l1.1875 0.234375q0.890625 0.140625 0.078125 0.59375q-0.234375 0.953125 -0.59375 1.921875l6.671875 0l0 10.984375q0 3.34375 -2.21875 3.34375l-1.640625 0l-0.21875 -1.40625l1.40625 0q1.1875 0 1.1875 -2.53125l0 -8.984375l-5.859375 0q-0.59375 0.96875 -1.34375 1.9375l5.125 0l0 7.9375l-4.0 0l0 1.265625l-1.265625 0zm4.0 -5.859375l0 -2.15625l-2.734375 0l0 2.15625l2.734375 0zm-10.828125 -7.421875l0 -1.421875l4.75 0l0 1.421875l-4.75 0zm-0.890625 2.59375l0 -1.40625l6.671875 0l0 1.40625l-6.671875 0zm0.890625 2.671875l0 -1.40625l4.75 0l0 1.40625l-4.75 0zm0 2.59375l0 -1.40625l4.75 0l0 1.40625l-4.75 0zm3.703125 7.125l0 -0.59375l-2.671875 0l0 0.828125l-1.25 0l0 -6.09375l5.1875 0l0 5.859375l-1.265625 0zm-2.671875 -1.78125l2.671875 0l0 -2.890625l-2.671875 0l0 2.890625zm7.0625 -2.375l2.734375 0l0 -2.21875l-2.734375 0l0 2.21875z" fill-rule="nonzero"/><path fill="#ea9999" d="m739.50134 345.40732l0 0c0 -13.48703 10.93335 -24.42044 24.42041 -24.42044l120.041016 0c6.4766846 0 12.68811 2.5728455 17.267883 7.152588c4.579712 4.579712 7.152527 10.791138 7.152527 17.267853l0 97.6788c0 13.48703 -10.93335 24.42044 -24.42041 24.42044l-120.041016 0c-13.487061 0 -24.42041 -10.933411 -24.42041 -24.42044z" fill-rule="evenodd"/><path fill="#000000" d="m807.1555 379.16672l0 -13.359375l1.78125 0l0 11.78125l6.5625 0l0 1.578125l-8.34375 0zm10.375732 0l0 -13.359375l1.78125 0l0 11.78125l6.5625 0l0 1.578125l-8.34375 0zm10.406921 0l0 -13.359375l2.65625 0l3.15625 9.453125q0.4375 1.328125 0.640625 1.984375q0.234375 -0.734375 0.703125 -2.140625l3.203125 -9.296875l2.375 0l0 13.359375l-1.703125 0l0 -11.171875l-3.875 11.171875l-1.59375 0l-3.859375 -11.375l0 11.375l-1.703125 0z" fill-rule="nonzero"/><path fill="#000000" d="m767.536 386.76047q2.890625 3.640625 7.640625 5.125l-0.734375 1.703125q-5.046875 -1.84375 -7.9375 -5.859375q-1.34375 2.75 -3.71875 4.375l8.234375 0l0 1.421875l-8.3125 0l0 -1.34375q-1.328125 1.109375 -3.109375 1.9375l-1.046875 -1.421875q5.421875 -2.515625 7.125 -6.75l1.9375 0.375q0.515625 0.078125 -0.078125 0.4375zm-4.671875 15.890625l-1.484375 0l0 -7.34375l11.0625 0l0 7.125l-1.484375 0l0 -0.8125l-8.09375 0l0 1.03125zm0 -2.453125l8.09375 0l0 -3.484375l-8.09375 0l0 3.484375zm19.890625 -10.53125l5.78125 0l1.5625 -3.796875l1.859375 0.59375q0.296875 0.296875 -0.21875 0.375l-1.640625 2.828125l3.421875 0l0 1.40625l-2.609375 0l0 3.109375l3.5625 0l0 1.421875l-3.5625 0l0 7.203125l-1.484375 0l0 -7.203125l-2.59375 0l0 1.328125q0 4.015625 -4.078125 5.9375l-0.890625 -1.484375q3.484375 -1.40625 3.484375 -4.53125l0 -1.25l-3.484375 0l0 -1.421875l3.484375 0l0 -3.109375l-2.59375 0l0 -1.40625zm-5.5 4.296875q2.828125 -3.109375 3.796875 -8.15625l1.78125 0.515625q0.296875 0.21875 -0.15625 0.375q-0.734375 2.296875 -1.484375 4.15625l0.15625 0.140625q0.296875 0.296875 -0.234375 0.375l0 11.359375l-1.484375 0l0 -9.140625q-0.4375 0.890625 -1.328125 1.859375l-1.046875 -1.484375zm8.25 -7.859375q0.890625 0.65625 1.84375 2.296875l-1.484375 1.03125q-0.8125 -1.40625 -1.703125 -2.21875l1.34375 -1.109375zm1.328125 8.078125l2.59375 0l0 -3.109375l-2.59375 0l0 3.109375zm15.65625 -1.03125l0 -0.375l-3.625 0l0 10.09375l-1.484375 0l0 -16.546875l6.59375 0l0 6.828125l-1.484375 0zm0 -4.234375l0 -1.40625l-3.625 0l0 1.40625l3.625 0zm0 2.671875l0 -1.484375l-3.625 0l0 1.484375l3.625 0zm0.234375 8.53125l0 1.046875l-1.265625 0l0 -6.609375l7.046875 0l0 6.15625l-1.265625 0l0 -0.59375l-4.515625 0zm4.515625 -1.1875l0 -3.1875l-4.515625 0l0 3.1875l4.515625 0zm2.53125 3.71875l-0.375 -1.40625l1.484375 0q0.21875 0 0.21875 -0.234375l0 -8.234375l-3.78125 0l0 0.453125l-1.484375 0l0 -6.90625l6.75 0l0 15.0625q0 1.265625 -1.1875 1.265625l-1.625 0zm1.328125 -15.140625l-3.78125 0l0 1.40625l3.78125 0l0 -1.40625zm0 4.078125l0 -1.484375l-3.78125 0l0 1.484375l3.78125 0zm7.125 4.53125q-0.0625 1.109375 -0.140625 2.078125q0.8125 1.03125 1.40625 1.5625l0 -5.28125l-3.859375 0l0 -1.40625l8.234375 0l0 1.40625l-3.109375 0l0 2.015625l2.515625 0l0 1.40625l-2.515625 0l0 2.59375q1.03125 0.671875 2.375 0.671875l9.34375 0l-0.359375 1.40625l-8.984375 0q-2.96875 0 -5.265625 -2.8125q-0.59375 2.0 -1.265625 2.96875l-1.1875 -1.109375q1.484375 -2.234375 1.484375 -6.171875l1.484375 0.21875q0.21875 0.234375 -0.15625 0.453125zm4.75 3.40625q1.859375 -0.4375 3.34375 -1.328125l-1.5625 0l0 -8.984375l2.078125 0l0.375 -1.484375l-3.109375 0l0 -1.40625l7.859375 0l0 1.40625l-3.109375 0l-0.671875 1.484375l3.265625 0l0 8.984375l-1.859375 0q0.96875 0.59375 2.828125 1.1875l-0.59375 1.328125q-1.859375 -0.515625 -3.203125 -1.546875l0.828125 -0.96875l-2.90625 0l0.828125 1.03125q0.296875 0.453125 -0.453125 0.296875q-1.40625 0.75 -3.34375 1.265625l-0.59375 -1.265625zm-6.15625 -7.421875l0 -5.78125l6.09375 0l0 5.78125l-6.09375 0zm4.828125 -2.296875l-3.5625 0l0 1.109375l3.5625 0l0 -1.109375zm8.53125 0.59375l-4.15625 0l0 1.40625l4.15625 0l0 -1.40625zm0 2.59375l-4.15625 0l0 1.421875l4.15625 0l0 -1.421875zm0 2.609375l-4.15625 0l0 1.40625l4.15625 0l0 -1.40625zm-8.53125 -8.09375l-3.5625 0l0 1.109375l3.5625 0l0 -1.109375zm12.6875 10.984375l0 -1.40625l1.859375 0l0 -10.328125l1.328125 0.375q1.046875 -0.140625 2.234375 -0.671875l0.59375 1.421875q0.21875 0.4375 -0.671875 0.140625q-0.96875 0.296875 -2.0 0.453125l0 1.78125l2.453125 0l0 1.40625l-2.453125 0l0 1.921875l2.375 0l0 1.421875l-2.375 0l0 2.078125l3.40625 0l0 -4.09375l1.1875 0q0.59375 0.078125 0.078125 0.453125l0 3.640625l1.5625 0l0 -5.046875l-1.40625 0l-1.421875 0l0 -5.796875l1.1875 0q0.59375 0.078125 0.078125 0.453125l0 1.109375l2.96875 0l0 1.1875l-2.96875 0l0 1.859375l2.828125 0l0 6.234375l3.109375 0l0 -2.078125l-2.078125 0l0 -1.421875l2.078125 0l0 -1.921875l-2.078125 0l0 -1.40625l2.078125 0l0 -2.078125l-2.375 0l0 -1.421875l3.859375 0l0 10.328125l1.640625 0l0 1.40625l-17.078125 0zm11.4375 0.21875q2.0 1.34375 5.1875 2.234375l-1.03125 1.859375q-2.53125 -0.890625 -5.125 -2.75l0.96875 -1.34375zm-11.0625 2.75q3.484375 -0.96875 5.421875 -2.59375l1.03125 0.8125q0.671875 0.515625 -0.296875 0.515625q-2.15625 1.859375 -5.046875 2.75l-1.109375 -1.484375zm18.78125 -6.53125q4.453125 -1.265625 7.9375 -4.96875l1.703125 0.296875q0.296875 0.296875 -0.21875 0.359375q2.078125 2.375 7.640625 3.796875l-0.515625 1.625q-2.671875 -0.671875 -4.375 -1.625l0 1.03125l-7.421875 0l0 -0.96875q-1.78125 1.265625 -4.15625 2.015625l-0.59375 -1.5625zm11.578125 -0.890625q-1.5625 -0.8125 -3.203125 -2.59375q-1.03125 1.328125 -2.96875 2.59375l6.171875 0zm-11.578125 -3.5625q1.78125 -1.5625 2.8125 -4.671875l1.5625 0.4375q0.296875 0.296875 -0.21875 0.375l-0.53125 1.03125l4.609375 0l0 1.1875l-2.75 0q0.453125 0.828125 0.890625 1.9375l-1.5625 0.4375q-0.359375 -1.328125 -0.8125 -2.375l-0.8125 0q-0.890625 1.78125 -2.15625 2.90625l-1.03125 -1.265625zm10.6875 -2.828125l5.78125 0l0 1.1875l-3.484375 0q0.59375 0.828125 0.96875 1.78125l-1.5625 0.59375q-0.375 -1.25 -0.96875 -2.375l-1.265625 0l-0.65625 1.1875l-1.265625 -0.734375q1.03125 -1.640625 1.625 -3.71875l1.484375 0.453125q0.296875 0.296875 -0.21875 0.375l-0.4375 1.25zm-6.171875 10.328125l0 2.59375l8.015625 0l0 -2.59375l-8.015625 0zm-1.484375 -1.1875l10.984375 0l0 5.78125l-1.484375 0l0 -0.8125l-8.015625 0l0 1.046875l-1.484375 0l0 -6.015625zm22.859375 -5.28125q-0.21875 0.453125 -0.65625 0.828125q1.484375 0.140625 3.5625 0.515625q0.8125 -0.671875 1.109375 -1.34375l-4.015625 0zm1.71875 2.15625q-1.421875 -0.375 -3.125 -0.515625q-0.140625 0.21875 -0.59375 0.59375l-1.109375 -0.515625q1.328125 -1.34375 1.625 -1.71875l-2.59375 0l0 -1.1875l3.421875 0q0.296875 -0.296875 0.734375 -1.03125l1.265625 0.140625q0.21875 0.15625 -0.15625 0.296875q-0.140625 0.296875 -0.4375 0.59375l6.609375 0l0 1.1875l-1.9375 0q-0.375 0.890625 -1.1875 1.640625q2.234375 0.515625 4.609375 1.328125l-0.828125 1.125q-3.109375 -1.265625 -4.8125 -1.640625q-1.9375 1.640625 -7.65625 1.859375l-0.59375 -1.34375q4.15625 0.234375 6.765625 -0.8125zm0.65625 2.671875l7.359375 0l0 1.1875l-6.984375 0q3.265625 2.296875 7.421875 2.828125l-0.515625 1.703125q-4.53125 -1.109375 -7.28125 -3.34375l0 4.15625l-1.484375 0l0 -4.15625q-2.375 2.15625 -7.046875 3.71875l-0.515625 -1.640625q4.234375 -0.890625 7.125 -3.265625l-6.828125 0l0 -1.1875l7.265625 0l0 -1.03125l1.421875 0q0.59375 0.0625 0.0625 0.4375l0 0.59375zm0 -8.6875l7.203125 0l0 3.203125l-1.484375 0l0 -2.015625l-12.90625 0l0 2.015625l-1.484375 0l0 -3.203125l7.1875 0l0 -1.625l1.421875 0q0.59375 0.078125 0.0625 0.4375l0 1.1875z" fill-rule="nonzero"/><path fill="#000000" d="m819.94226 421.60422l0 1.1875l-6.984375 0l0 -1.1875l2.828125 0l0 -1.921875l-2.078125 0l0 -1.1875l2.078125 0l0 -1.78125l-2.53125 0l0 -1.1875l6.453125 0l0 1.1875l-2.671875 0l0 1.78125l2.15625 0l0 1.1875l-2.15625 0l0 1.921875l2.90625 0zm-1.78125 -8.453125l2.59375 0l0 -1.265625l-2.59375 0l0 1.265625zm2.59375 -2.453125l0 -1.1875l-2.59375 0l0 1.1875l2.59375 0zm-0.21875 12.765625q0.21875 0 0.21875 -0.21875l0 -8.90625l-1.9375 0l-1.921875 0l0 -6.015625l5.125 0l0 15.140625q0 1.1875 -0.96875 1.1875l-1.40625 0l-0.296875 -1.1875l1.1875 0zm-8.609375 -10.3125l2.671875 0l0 -1.265625l-2.671875 0l0 1.265625zm2.671875 -2.453125l0 -1.1875l-2.671875 0l0 1.1875l2.671875 0zm1.25 -2.375l0 6.015625l-3.921875 0l0 10.3125l-1.265625 0l0 -16.328125l5.1875 0zm-6.375 10.3125q-0.75 2.828125 -1.859375 5.578125q0.15625 0.65625 -0.296875 0.4375l-1.265625 -1.40625q1.484375 -2.53125 2.15625 -5.421875l1.265625 0.8125zm-2.296875 -5.640625q1.546875 0.515625 2.734375 1.484375l-0.890625 1.40625q-1.1875 -0.890625 -2.671875 -1.484375l0.828125 -1.40625zm0.4375 -4.375q1.34375 0.375 2.53125 1.484375l-0.890625 1.328125q-1.046875 -0.890625 -2.453125 -1.484375l0.8125 -1.328125zm28.125 14.171875l1.71875 0q1.03125 0 1.328125 -1.1875q0.453125 -1.859375 0.75 -9.5l-9.953125 0q-1.859375 2.75 -4.0 4.078125l-0.75 -1.625q3.34375 -2.15625 4.96875 -6.90625l1.5625 0.296875q0.671875 0.21875 -0.078125 0.515625q-0.296875 0.96875 -0.890625 2.015625l10.84375 0q-0.453125 9.71875 -1.046875 12.09375q-0.4375 1.859375 -2.375 1.859375l-2.078125 0l0 -1.640625zm-5.9375 -7.125l0 3.5625l4.3125 0l0 -3.5625l-4.3125 0zm0 4.96875l0 1.265625l-1.484375 0l0 -7.640625l7.28125 0l0 6.90625l-1.484375 0l0 -0.53125l-4.3125 0z" fill-rule="nonzero"/><path fill="#cccccc" d="m646.895 282.20996l79.811035 0l0 87.275604l-79.811035 0z" fill-rule="evenodd"/><path fill="#000000" d="m667.06616 309.01776q0 -1.171875 -0.0625 -2.265625l1.453125 0q-0.078125 1.015625 -0.078125 2.265625l4.515625 0q1.03125 0 2.484375 -0.078125l0 1.390625q-1.453125 -0.078125 -2.484375 -0.078125l-2.609375 0q0.796875 1.171875 2.390625 2.046875q1.609375 0.875 3.65625 1.375q-0.734375 0.59375 -1.03125 1.46875q-2.25 -0.8125 -3.828125 -1.96875q-1.5625 -1.171875 -2.65625 -2.921875l-0.4375 0l0 4.015625l4.59375 0q-0.078125 1.3125 -0.078125 2.90625q0 1.53125 0.078125 3.0625l-10.34375 0q0.078125 -1.390625 0.078125 -2.984375q0 -1.671875 -0.078125 -2.984375q-0.953125 0.578125 -2.265625 1.234375q-0.4375 -0.796875 -1.015625 -1.3125q1.609375 -0.359375 3.203125 -1.453125q1.609375 -1.09375 2.546875 -2.484375l-2.109375 0q-1.3125 0 -2.765625 0.078125l0 -1.390625q1.453125 0.078125 2.765625 0.078125l4.078125 0zm6.265625 12.75q1.25 0 2.40625 -0.078125l0 1.3125q-2.765625 -0.0625 -3.859375 -0.0625l-9.25 0q-1.3125 0 -2.625 0.0625l0 -1.3125q1.390625 0.078125 2.625 0.078125l10.703125 0zm-1.734375 -2.703125l0 -1.3125l-7.59375 0l0 1.3125l7.59375 0zm0 -2.390625l0 -1.25l-7.59375 0l0 1.25l7.59375 0zm-4.53125 -2.40625l0 -4.015625l-0.359375 0q-0.796875 1.234375 -1.75 2.1875q-0.953125 0.953125 -2.25 1.828125l4.359375 0z" fill-rule="nonzero"/><path fill="#000000" d="m685.81616 321.4709l0 -8.984375l-0.96875 0.96875l-0.890625 -1.40625q2.296875 -1.78125 3.34375 -5.875l1.1875 0.234375q0.890625 0.140625 0.078125 0.59375q-0.234375 0.953125 -0.59375 1.921875l6.671875 0l0 10.984375q0 3.34375 -2.21875 3.34375l-1.640625 0l-0.21875 -1.40625l1.40625 0q1.1875 0 1.1875 -2.53125l0 -8.984375l-5.859375 0q-0.59375 0.96875 -1.34375 1.9375l5.125 0l0 7.9375l-4.0 0l0 1.265625l-1.265625 0zm4.0 -5.859375l0 -2.15625l-2.734375 0l0 2.15625l2.734375 0zm-10.828125 -7.421875l0 -1.421875l4.75 0l0 1.421875l-4.75 0zm-0.890625 2.59375l0 -1.40625l6.671875 0l0 1.40625l-6.671875 0zm0.890625 2.671875l0 -1.40625l4.75 0l0 1.40625l-4.75 0zm0 2.59375l0 -1.40625l4.75 0l0 1.40625l-4.75 0zm3.703125 7.125l0 -0.59375l-2.671875 0l0 0.828125l-1.25 0l0 -6.09375l5.1875 0l0 5.859375l-1.265625 0zm-2.671875 -1.78125l2.671875 0l0 -2.890625l-2.671875 0l0 2.890625zm7.0625 -2.375l2.734375 0l0 -2.21875l-2.734375 0l0 2.21875zm21.0 1.9375q-2.296875 1.625 -6.15625 2.375l-0.53125 -1.5625q3.5625 -0.453125 5.578125 -1.859375q-0.828125 -0.96875 -1.421875 -2.15625q-1.03125 1.484375 -2.890625 2.671875l-0.890625 -1.1875q2.890625 -1.84375 3.78125 -4.375l-2.8125 0.15625q-0.078125 0.515625 -0.375 0.21875l-0.515625 -1.703125l2.96875 -0.078125l1.40625 -1.1875q-1.703125 -1.1875 -3.109375 -1.859375l0.8125 -1.265625l0.734375 0.375q1.265625 -1.5625 2.234375 -3.40625l1.265625 0.734375q0.65625 0.375 -0.078125 0.515625q-0.96875 1.34375 -2.296875 2.90625q0.734375 0.4375 1.40625 0.890625q1.328125 -1.265625 2.75 -3.265625l1.328125 0.8125q0.296875 0.296875 -0.21875 0.375q-1.40625 1.921875 -4.3125 4.375l4.453125 -0.296875q-0.59375 -0.671875 -1.1875 -1.265625l1.046875 -0.890625q1.703125 1.265625 2.8125 3.34375l-1.25 0.96875l-0.59375 -1.046875l-4.828125 0.453125l-0.59375 1.25l3.703125 0l0.234375 -0.359375l1.25 0.734375q0.53125 0.21875 -0.296875 0.453125q-1.03125 1.921875 -2.296875 3.109375q1.9375 1.1875 4.828125 1.640625l-0.59375 1.703125q-2.96875 -0.671875 -5.34375 -2.296875zm0 -1.859375q0.8125 -0.8125 1.5625 -1.9375l-2.90625 0q0.453125 1.046875 1.34375 1.9375zm-7.203125 4.234375l-1.484375 0l0 -7.65625q-0.671875 0.671875 -1.5625 1.421875l-0.65625 -1.484375q2.4375 -1.9375 4.0 -4.984375l1.34375 0.890625q0.296875 0.296875 -0.234375 0.375q-0.515625 0.890625 -1.40625 2.078125l0 9.359375zm1.34375 -15.375q-1.34375 1.9375 -3.9375 3.71875l-0.8125 -1.484375q2.21875 -1.484375 3.859375 -3.5625l1.328125 1.03125q0.078125 0.375 -0.4375 0.296875z" fill-rule="nonzero"/><path fill="#000000" d="m669.9568 333.2209q-0.75 2.078125 -2.375 3.9375l-1.109375 -1.328125q2.515625 -2.53125 3.1875 -7.203125l1.5625 0.515625q0.65625 0.296875 -0.078125 0.453125q-0.21875 1.03125 -0.59375 2.21875l5.34375 0l-0.375 10.09375q-0.078125 2.96875 -2.375 2.96875l-2.078125 0l-0.21875 -1.40625l1.921875 0q1.046875 0 1.125 -1.34375l0.359375 -8.90625l-4.296875 0zm0.890625 6.90625q-1.046875 -1.484375 -2.296875 -2.671875l1.25 -1.328125q1.484375 1.328125 2.375 2.59375l-1.328125 1.40625zm-8.765625 -8.3125q0.453125 -1.40625 0.828125 -3.265625l1.78125 0.671875q0.296875 0.296875 -0.234375 0.375q-0.21875 0.953125 -0.8125 2.21875l2.75 0l0 12.25l-1.484375 0l0 -0.890625l-3.265625 0l0 1.484375l-1.484375 0l0 -12.84375l1.921875 0zm2.828125 1.40625l-3.265625 0l0 3.265625l3.265625 0l0 -3.265625zm0 4.6875l-3.265625 0l0 3.859375l3.265625 0l0 -3.859375zm15.65625 1.109375q0.515625 0.140625 0 0.4375q0 2.53125 -0.671875 4.46875l-1.484375 -0.671875q0.671875 -2.15625 0.59375 -4.390625l1.5625 0.15625zm4.15625 -2.078125l-1.78125 0.21875l0 8.25l-1.484375 0l0 -8.03125l-2.75 0.234375q-0.0625 0.515625 -0.359375 0.21875l-0.296875 -1.703125l1.703125 0q0.59375 -0.59375 1.109375 -1.265625q-1.265625 -1.046875 -2.59375 -1.859375l0.734375 -1.1875l0.59375 0.296875q1.421875 -2.078125 2.234375 -3.78125l1.40625 0.8125q0.296875 0.296875 -0.296875 0.375q-0.734375 1.484375 -2.21875 3.34375l1.03125 0.8125q1.1875 -1.703125 2.078125 -3.34375l1.265625 0.75q0.4375 0.296875 -0.15625 0.359375q-1.03125 1.859375 -3.484375 4.609375l2.828125 -0.15625q-0.375 -0.734375 -0.890625 -1.40625l1.25 -0.515625q1.125 1.03125 2.015625 3.34375l-1.484375 0.65625l-0.453125 -1.03125zm-0.21875 5.859375q-0.296875 -2.296875 -0.890625 -3.859375l1.328125 -0.4375q0.828125 1.40625 1.125 3.859375l-1.5625 0.4375zm8.53125 0.078125l0 -3.484375l-4.453125 0l0 3.484375l4.453125 0zm-4.453125 1.40625l0 1.046875l-1.484375 0l0 -7.359375l7.421875 0l0 7.140625l-1.484375 0l0 -0.828125l-4.453125 0zm2.828125 -9.421875l3.40625 0l0 1.40625l-8.15625 0l0 -1.40625l3.265625 0l0 -2.296875l-3.859375 0l0 -1.421875l3.859375 0l0 -2.671875l1.40625 0q0.59375 0.078125 0.078125 0.453125l0 2.21875l3.921875 0l0 1.421875l-3.921875 0l0 2.296875zm6.296875 4.375l0 -1.40625l7.359375 0l0 -1.640625l-3.796875 0l0 0.671875l-1.484375 0l0 -7.9375l11.953125 0l0 7.796875l-1.484375 0l0 -0.53125l-3.703125 0l0 1.640625l7.1875 0l0 1.40625l-6.828125 0q2.828125 2.75 7.125 3.9375l-0.65625 1.703125q-4.6875 -1.78125 -6.828125 -4.234375l0 4.90625l-1.484375 0l0 -4.828125q-2.078125 2.828125 -6.6875 4.234375l-0.8125 -1.640625q4.828125 -1.1875 7.125 -4.078125l-6.984375 0zm3.5625 -5.9375l0 1.484375l3.796875 0l0 -1.484375l-3.796875 0zm0 -2.96875l0 1.5625l3.796875 0l0 -1.5625l-3.796875 0zm8.984375 0l-3.703125 0l0 1.5625l3.703125 0l0 -1.5625zm0 2.96875l-3.703125 0l0 1.484375l3.703125 0l0 -1.484375z" fill-rule="nonzero"/><path fill="#cccccc" d="m502.9685 183.80577l282.64252 0c26.569336 0 48.108093 21.538727 48.108093 48.108093l0 45.924026l22.414734 0l-28.427795 30.629303l-28.427795 -30.629303l22.414795 0l0 -45.924026l0 0c0 -19.927536 -16.15448 -36.082 -36.08203 -36.082l-282.64252 0z" fill-rule="evenodd"/></g></svg>